<?xml version="1.0" encoding="UTF-8" standalone="no"?>
<!-- Uploaded to: SVG Repo, www.svgrepo.com, Generator: SVG Repo Mixer Tools -->

<svg
   fill="#000000"
   width="30"
   height="23.093262"
   viewBox="0 -14.14 4.608 3.547125"
   version="1.1"
   id="Layer_1"
   xml:space="preserve"
   sodipodi:docname="engine-motor.svg"
   inkscape:version="1.3.2 (091e20e, 2023-11-25)"
   xmlns:inkscape="http://www.inkscape.org/namespaces/inkscape"
   xmlns:sodipodi="http://sodipodi.sourceforge.net/DTD/sodipodi-0.dtd"
   xmlns="http://www.w3.org/2000/svg"
   xmlns:svg="http://www.w3.org/2000/svg"><defs
   id="defs1">



</defs><sodipodi:namedview
   id="namedview1"
   pagecolor="#ffffff"
   bordercolor="#000000"
   borderopacity="0.25"
   inkscape:showpageshadow="2"
   inkscape:pageopacity="0.0"
   inkscape:pagecheckerboard="0"
   inkscape:deskcolor="#d1d1d1"
   inkscape:zoom="1.015"
   inkscape:cx="399.50739"
   inkscape:cy="308.37438"
   inkscape:window-width="1896"
   inkscape:window-height="1016"
   inkscape:window-x="10"
   inkscape:window-y="30"
   inkscape:window-maximized="1"
   inkscape:current-layer="Layer_1" />

<style
   type="text/css"
   id="style1">.st0{fill-rule:evenodd;clip-rule:evenodd;}</style>

<path
   class="st0"
   d="m 1.63425,-10.6825 -0.438,-0.437625 h -0.3015 c -0.105375,0 -0.191625,-0.08625 -0.191625,-0.191625 V -11.638 H 0.5205 v 0.38175 c 0,0.08137 -0.06675,0.148125 -0.148125,0.148125 H 0.148125 C 0.06675,-11.108125 0,-11.174875 0,-11.25625 V -12.55 c 0,-0.08137 0.06675,-0.148125 0.148125,-0.148125 h 0.22425 c 0.081375,0 0.148125,0.06675 0.148125,0.148125 v 0.38175 h 0.182625 v -0.351 c 0,-0.105375 0.08625,-0.191625 0.191625,-0.191625 H 1.215 L 1.667625,-13.192 c 0.0525,-0.04575 0.12225,-0.06188 0.203625,-0.0585 h 1.864875 c 0.0645,0.0071 0.113625,0.03188 0.143625,0.07838 0.03,0.04575 0.025125,0.07162 0.025125,0.123 v 0.880875 H 4.0875 V -12.55 c 0,-0.08137 0.06675,-0.148125 0.148125,-0.148125 h 0.22425 c 0.081375,0 0.148125,0.06675 0.148125,0.148125 v 1.29375 c 0,0.08137 -0.06675,0.148125 -0.148125,0.148125 h -0.22425 c -0.081375,0 -0.148125,-0.06675 -0.148125,-0.148125 V -11.638 H 3.904875 v 0.0345 c 0,0.102375 0.003,0.16425 -0.06225,0.249 -0.012375,0.01613 -0.02625,0.0315 -0.041625,0.04575 L 3.132375,-10.654 c -0.033375,0.03712 -0.084,0.05738 -0.15075,0.06113 h -1.14 c -0.085125,-0.0038 -0.1545,-0.033 -0.207375,-0.08962 z m 0.754875,-1.14075 -0.474,-0.04462 0.393,-0.861 H 2.8455 l -0.304875,0.493875 0.54825,0.06075 -1.0065,1.20825 z M 1.94925,-14.14 H 3.243 c 0.081375,0 0.148125,0.06675 0.148125,0.148125 v 0.22425 c 0,0.08138 -0.06675,0.148125 -0.148125,0.148125 H 2.86125 v 0.188625 H 2.331 V -13.6195 H 1.94925 c -0.081375,0 -0.148125,-0.06675 -0.148125,-0.148125 v -0.22425 c 0,-0.08137 0.06675,-0.148125 0.148125,-0.148125 z"
   id="path1"
   style="fill:#939dac;fill-opacity:1;stroke-width:0.0375" />

</svg>
