<?xml version="1.0" encoding="UTF-8" standalone="no"?>
<!-- Uploaded to: SVG Repo, www.svgrepo.com, Generator: SVG Repo Mixer Tools -->

<svg
   fill="#000000"
   width="30"
   height="29.9991"
   viewBox="0 0 0.9 0.89997299"
   version="1.1"
   id="svg2"
   sodipodi:docname="fan-circled.svg"
   inkscape:version="1.3.2 (091e20e, 2023-11-25)"
   xmlns:inkscape="http://www.inkscape.org/namespaces/inkscape"
   xmlns:sodipodi="http://sodipodi.sourceforge.net/DTD/sodipodi-0.dtd"
   xmlns="http://www.w3.org/2000/svg"
   xmlns:svg="http://www.w3.org/2000/svg">
  <defs
     id="defs2" />
  <sodipodi:namedview
     id="namedview2"
     pagecolor="#ffffff"
     bordercolor="#000000"
     borderopacity="0.25"
     inkscape:showpageshadow="2"
     inkscape:pageopacity="0.0"
     inkscape:pagecheckerboard="0"
     inkscape:deskcolor="#d1d1d1"
     inkscape:zoom="1.015"
     inkscape:cx="32.019704"
     inkscape:cy="32.512315"
     inkscape:window-width="1896"
     inkscape:window-height="1016"
     inkscape:window-x="10"
     inkscape:window-y="30"
     inkscape:window-maximized="1"
     inkscape:current-layer="svg2" />
  <path
     id="path1"
     d="M 0.45,0 C 0.201473,0 0,0.201467 0,0.449989 0,0.698507 0.201473,0.899973 0.45,0.899973 0.698526,0.899973 0.9,0.698507 0.9,0.449989 0.9,0.201467 0.698526,0 0.45,0 Z m 0,0.06667 c 0.211706,0 0.383331,0.17162 0.383331,0.383324 0,0.2117 -0.171625,0.383319 -0.383331,0.383319 -0.211709,0 -0.383333,-0.171619 -0.383333,-0.383319 C 0.066667,0.23829 0.238291,0.06667 0.45,0.06667 Z M 0.46512,0.135 c -0.11214,0 -0.137024,0.125994 -0.07434,0.240965 -0.01291,0.01 -0.02292,0.02327 -0.02898,0.03843 -0.01601,-0.002 -0.03135,-0.0076 -0.04488,-0.01639 -0.01353,-0.0088 -0.02489,-0.02052 -0.03324,-0.03433 -0.03717,-0.07465 -0.148682,-0.07119 -0.148682,0.07056 0,0.112451 0.12411,0.137019 0.240344,0.07465 0.01035,0.01295 0.02394,0.02294 0.03938,0.02898 -0.0023,0.01582 -0.0081,0.03093 -0.01692,0.04427 -0.0088,0.01334 -0.02046,0.02457 -0.03411,0.0329 -0.07465,0.03717 -0.07119,0.149935 0.0693,0.149935 0.112769,0 0.137969,-0.125052 0.07497,-0.241284 0.01251,-0.01044 0.02234,-0.02372 0.02866,-0.03874 0.01611,0.0021 0.03155,0.0077 0.04519,0.01655 0.01363,0.0088 0.0251,0.02061 0.03356,0.03448 0.03686,0.07465 0.149626,0.0715 0.149626,-0.07024 0,-0.112766 -0.126001,-0.137648 -0.241291,-0.07465 -0.01038,-0.01258 -0.02368,-0.02242 -0.03875,-0.02867 0.002,-0.016 0.0077,-0.03132 0.01651,-0.04481 0.0088,-0.01349 0.02065,-0.02477 0.03452,-0.03299 0.07465,-0.03717 0.07151,-0.149619 -0.07024,-0.149619 z M 0.45,0.418488 c 0.0084,0 0.01637,0.0033 0.02227,0.0092 0.0059,0.0059 0.0092,0.01393 0.0092,0.02228 0,0.0062 -0.0018,0.01232 -0.0053,0.0175 -0.0035,0.0052 -0.0084,0.0092 -0.01413,0.0116 -0.0058,0.0024 -0.01209,0.003 -0.0182,0.0018 -0.0061,-0.0012 -0.01172,-0.0042 -0.01613,-0.0086 -0.0044,-0.0044 -0.0074,-0.01002 -0.0086,-0.01613 -0.0012,-0.0061 -6.01e-4,-0.01245 0.0018,-0.0182 0.0024,-0.0058 0.0064,-0.01068 0.0116,-0.01413 0.0052,-0.0035 0.01127,-0.0053 0.0175,-0.0053 z"
     style="fill:#939dac;fill-opacity:1;stroke-width:0.0449993" />
</svg>
