<?xml version="1.0" encoding="UTF-8" standalone="no"?>
<!-- Uploaded to: SVG Repo, www.svgrepo.com, Generator: SVG Repo Mixer Tools -->

<svg
   height="29.035547"
   width="30"
   version="1.1"
   id="_x32_"
   viewBox="0 0 19.2 18.58275"
   xml:space="preserve"
   sodipodi:docname="lego-2.svg"
   inkscape:version="1.3.2 (091e20e, 2023-11-25)"
   xmlns:inkscape="http://www.inkscape.org/namespaces/inkscape"
   xmlns:sodipodi="http://sodipodi.sourceforge.net/DTD/sodipodi-0.dtd"
   xmlns="http://www.w3.org/2000/svg"
   xmlns:svg="http://www.w3.org/2000/svg"><defs
   id="defs3">
	
	
	
</defs><sodipodi:namedview
   id="namedview3"
   pagecolor="#ffffff"
   bordercolor="#000000"
   borderopacity="0.25"
   inkscape:showpageshadow="2"
   inkscape:pageopacity="0.0"
   inkscape:pagecheckerboard="0"
   inkscape:deskcolor="#d1d1d1"
   inkscape:zoom="12.129497"
   inkscape:cx="8.697805"
   inkscape:cy="11.542111"
   inkscape:window-width="1896"
   inkscape:window-height="1016"
   inkscape:window-x="10"
   inkscape:window-y="30"
   inkscape:window-maximized="1"
   inkscape:current-layer="_x32_" />
<style
   type="text/css"
   id="style1">
	.st0{fill:#000000;}
</style>
<path
   id="path1"
   style="stroke-width:0.0375;fill:#939dac;fill-opacity:1"
   class="st0"
   d="M 9.5924999 0 C 9.1127629 0.00097499902 8.6649621 0.12697524 8.3049999 0.3675 C 8.1252626 0.48873738 7.9646873 0.64233768 7.8437499 0.83249999 C 7.7248001 1.0206748 7.6475999 1.2463002 7.6424999 1.4875 L 5.94375 2.29375 C 5.6886752 2.2029626 5.4102497 2.151625 5.11625 2.15125 L 5.115 2.15125 C 4.6290005 2.152225 4.1766746 2.2820877 3.81375 2.52625 L 3.81 2.5275 C 3.6287627 2.6507249 3.4680999 2.8068752 3.3475 3 C 3.2361971 3.1775573 3.1647 3.3903127 3.15375 3.61625 L 0 5.11125 L 0 14.03125 L 9.5999999 18.5825 L 19.2 14.03125 L 19.2 5.11125 L 15.8 3.49875 C 15.77364 3.3175502 15.710848 3.1477123 15.61875 3 C 15.437549 2.7111003 15.167376 2.5041248 14.86625 2.365 C 14.562763 2.2261751 14.216988 2.1515875 13.85125 2.15125 C 13.610237 2.15125 13.380363 2.188725 13.165 2.25 L 11.57 1.49375 C 11.56205 1.2618877 11.491213 1.0447123 11.37875 0.86249999 C 11.200025 0.57457528 10.93445 0.36682486 10.63625 0.225 L 10.635 0.225 C 10.334655 0.08388764 9.9915496 0.004949995 9.6274999 0 L 9.5937499 0 L 9.5924999 0 z M 9.5924999 1.00375 L 9.6137499 1.005 C 9.9162246 1.008 10.182438 1.0983751 10.34875 1.215 C 10.43222 1.2726379 10.4906 1.33445 10.52375 1.38875 C 10.55754 1.4444379 10.56842 1.488038 10.56875 1.53375 L 10.56875 1.535 L 10.565 1.9525 C 10.49243 2.0180524 10.40135 2.0787625 10.295 2.12875 C 10.106525 2.2178874 9.8716997 2.27325 9.6162499 2.27625 L 9.5924999 2.2775 C 9.2558998 2.2778375 8.9541372 2.1841248 8.7487499 2.045 C 8.7090375 2.01845 8.6737249 1.989175 8.6412499 1.96 L 8.6462499 1.5125 C 8.6472249 1.467125 8.6590125 1.4236999 8.6924999 1.37 C 8.7415124 1.2905001 8.8475501 1.1940499 9.0062499 1.1225 C 9.1636373 1.0506126 9.3685127 1.00375 9.5924999 1.00375 z M 10.65125 2.40625 L 10.6425 3.01375 C 10.6409 3.0750629 10.62418 3.1332625 10.58375 3.1975 C 10.52345 3.2935749 10.404275 3.3975126 10.235 3.47375 C 10.0664 3.5502499 9.8513497 3.5990875 9.6174999 3.59875 L 9.5874999 3.59875 C 9.2704378 3.5941375 8.9893748 3.4991248 8.8074999 3.37125 C 8.7160375 3.30765 8.6504249 3.2362249 8.6099999 3.17 C 8.5696125 3.1034 8.5528374 3.0444874 8.5524999 2.9825 L 8.5524999 2.9775 L 8.5524999 2.97625 L 8.5612499 2.42 C 8.6202374 2.4567849 8.68255 2.4901875 8.7474999 2.52 C 8.9942872 2.6319374 9.2830127 2.69375 9.5924999 2.69375 L 9.6224999 2.69375 C 10.013775 2.68813 10.371275 2.5831748 10.65125 2.40625 z M 7.8924999 2.48125 L 7.8849999 2.96625 L 7.8849999 2.98125 C 7.8846624 3.1760998 7.9442 3.3617001 8.0412499 3.51875 C 8.1873498 3.7559372 8.4112627 3.9366126 8.6749999 4.0625 C 8.9393747 4.1880498 9.2469628 4.260625 9.5762499 4.26625 L 9.6174999 4.26625 C 10.050512 4.265575 10.447687 4.1511248 10.75875 3.94375 C 10.913812 3.8393876 11.048425 3.7100623 11.1475 3.555 C 11.2462 3.4002751 11.3073 3.2168748 11.31 3.02375 L 11.3175 2.485 L 12.44 3.0175 C 12.38829 3.0734879 12.340727 3.132925 12.3 3.1975 C 12.2013 3.3545498 12.140337 3.5404627 12.14 3.73625 L 12.135 5.20625 L 12.135 5.21 C 12.134363 5.4057873 12.194095 5.5923126 12.2925 5.75 C 12.440625 5.9875247 12.667725 6.1673501 12.93375 6.29125 C 13.20075 6.4144748 13.511225 6.4833875 13.8425 6.485 L 13.84375 6.485 L 13.85125 6.485 C 14.291199 6.484025 14.695938 6.3657747 15.01 6.15375 C 15.166675 6.0477376 15.301262 5.9164373 15.4 5.75875 C 15.49874 5.6017001 15.559325 5.4154873 15.56 5.22 L 15.5625 4.4975 L 17.63875 5.4825 L 9.5999999 9.2937499 L 1.56125 5.4825 L 3.4025 4.60875 L 3.4 5.1875 L 3.4 5.19125 C 3.3996625 5.3870748 3.4591001 5.5748126 3.5575 5.7325 C 3.7055873 5.9700247 3.9323877 6.1485626 4.19875 6.2725 C 4.4654122 6.3957248 4.7761878 6.4646375 5.1075 6.46625 L 5.10875 6.46625 L 5.11625 6.46625 C 5.5561995 6.465275 5.9596878 6.3482747 6.27375 6.13625 C 6.4307998 6.0302376 6.5663001 5.8980248 6.665 5.74 C 6.7637369 5.5829501 6.8243625 5.3967373 6.825 5.20125 L 6.83125 3.7325 L 6.83125 3.73 L 6.83125 3.7275 C 6.831585 3.5313377 6.7705999 3.3455248 6.6725 3.1875 C 6.651275 3.1543875 6.6288499 3.1224124 6.605 3.09125 L 7.8924999 2.48125 z M 5.115 3.155 C 5.3684622 3.154325 5.5976751 3.2149501 5.765 3.30375 L 5.94875 3.40125 L 5.9725 3.39125 C 6.0307749 3.4402619 6.07485 3.490375 6.105 3.53875 C 6.1457249 3.6053499 6.162163 3.664875 6.1625 3.7275 L 6.1625 3.72875 L 6.1625 3.995 C 6.080675 4.0963624 5.9564748 4.1918625 5.79875 4.26375 C 5.6086252 4.3511999 5.3717247 4.405 5.115 4.405 C 4.7727753 4.405675 4.4658873 4.3087123 4.2575 4.16625 C 4.2191 4.1404125 4.1852499 4.1122499 4.15375 4.08375 L 4.15375 3.67625 C 4.1540875 3.6305 4.16655 3.5862249 4.2 3.53125 C 4.2493499 3.4500626 4.3574251 3.3510749 4.51875 3.2775 C 4.6790998 3.2036251 4.8870752 3.154625 5.115 3.155 z M 13.85125 3.155 C 14.155038 3.15399 14.423625 3.2418876 14.59125 3.3575 C 14.6754 3.4144999 14.7328 3.4769125 14.76625 3.53125 C 14.7997 3.5862249 14.81217 3.6305 14.8125 3.67625 L 14.8125 4.08375 C 14.73795 4.1509879 14.644075 4.2133875 14.53375 4.26375 C 14.34355 4.3511999 14.107675 4.405 13.85125 4.405 C 13.508688 4.405675 13.20085 4.3087123 12.9925 4.16625 C 12.916975 4.114875 12.855875 4.0576999 12.8075 3.99875 L 12.8075 3.73875 C 12.808138 3.676462 12.82552 3.6172124 12.86625 3.55125 C 12.91162 3.4774121 12.991262 3.3991999 13.10125 3.33125 L 13.11375 3.3375 L 13.28625 3.26375 C 13.443637 3.19715 13.638888 3.1546625 13.85125 3.155 z M 9.5899999 4.3525 C 9.1500504 4.353475 8.7465996 4.4707752 8.4324999 4.6825 C 8.2758276 4.7891499 8.1402873 4.9197751 8.0412499 5.0775 C 7.942512 5.2345498 7.8827999 5.4204627 7.8824999 5.61625 L 7.8762499 7.08625 L 7.8762499 7.09 C 7.8759099 7.2857923 7.93535 7.4735626 8.0337499 7.6312499 C 8.1817998 7.8690747 8.4086752 8.0473501 8.6749999 8.1712499 C 8.9419997 8.2948498 9.2527753 8.3633499 9.5837499 8.3649999 L 9.5849999 8.3649999 L 9.5937499 8.3649999 C 10.0337 8.3643624 10.437187 8.2466497 10.75125 8.0349999 C 10.907925 7.9286501 11.042513 7.7963998 11.14125 7.6387499 C 11.23999 7.4817001 11.300575 7.2957873 11.30125 7.1 L 11.3075 5.63125 L 11.3075 5.62875 L 11.3075 5.62625 C 11.307862 5.4305002 11.24685 5.2439373 11.14875 5.08625 C 11.000362 4.8486877 10.773525 4.6701498 10.5075 4.54625 C 10.240462 4.4229876 9.9309746 4.35415 9.5999999 4.3525 L 9.5899999 4.3525 z M 4.07 4.54125 C 4.1293249 4.5787129 4.1915375 4.61205 4.2575 4.6425 C 4.5072872 4.7571374 4.8006003 4.8221625 5.115 4.8225 C 5.5118996 4.821825 5.8757502 4.7191498 6.16 4.54125 L 6.1575 5.19875 C 6.157165 5.2610374 6.1398124 5.320325 6.09875 5.38625 C 6.03845 5.4843124 5.9172373 5.591475 5.745 5.67 C 5.5733626 5.7485249 5.3544122 5.79875 5.11625 5.79875 L 5.11 5.79875 C 4.7912878 5.798075 4.5072748 5.7056498 4.32375 5.57875 C 4.2316501 5.515825 4.1654249 5.4458874 4.125 5.38 C 4.084275 5.3134 4.0678375 5.2535374 4.0675 5.19125 L 4.0675 5.19 L 4.07 4.54125 z M 12.805 4.54125 C 12.86433 4.5787129 12.926575 4.61205 12.9925 4.6425 C 13.242288 4.7571374 13.535637 4.8221625 13.85 4.8225 C 14.246862 4.821825 14.61075 4.7191498 14.895 4.54125 L 14.89125 5.2175 C 14.89095 5.2797879 14.87448 5.339075 14.83375 5.405 C 14.77345 5.5030999 14.652238 5.610225 14.48 5.68875 C 14.3087 5.7672749 14.089487 5.8175 13.85125 5.8175 L 13.84875 5.8175 L 13.845 5.8175 C 13.526417 5.816825 13.242275 5.7243998 13.05875 5.5975 C 12.96665 5.534575 12.900388 5.4646374 12.86 5.39875 C 12.819275 5.33215 12.802838 5.2722874 12.8025 5.21 L 12.8025 5.20875 L 12.805 4.54125 z M 9.5899999 5.02 L 9.5962499 5.02 C 9.9152996 5.0203 10.199276 5.1121881 10.3825 5.23875 C 10.4746 5.3017129 10.540488 5.3715375 10.58125 5.4375 C 10.62201 5.5037619 10.63967 5.5639625 10.64 5.62625 L 10.64 5.6275 L 10.63875 5.9525 C 10.556888 6.0498874 10.43615 6.1413125 10.28375 6.21125 C 10.09355 6.2986999 9.8567622 6.351625 9.5999999 6.35125 C 9.2577753 6.351925 8.9508497 6.2562123 8.7424999 6.11375 C 8.662625 6.0594125 8.5980999 5.9985374 8.5487499 5.93625 L 8.5499999 5.61875 C 8.5506749 5.5564625 8.5667375 5.4972124 8.6074999 5.43125 C 8.6677999 5.3332251 8.7889751 5.2269374 8.9612499 5.14875 C 9.1328498 5.069888 9.3518002 5.0196625 9.5899999 5.02 z M 1.00375 6.14125 L 9.1824999 10.01875 L 9.1824999 17.27375 L 1.00375 13.39625 L 1.00375 6.14125 z M 8.5462499 6.4825 C 8.6081999 6.5219129 8.673575 6.5585375 8.7424999 6.59 C 8.9922872 6.7046373 9.2856378 6.76875 9.5999999 6.76875 C 9.9932245 6.768075 10.353312 6.6674373 10.63625 6.4925 L 10.63375 7.0975 C 10.633075 7.1597879 10.6161 7.2187375 10.575 7.285 C 10.5147 7.3830249 10.393488 7.490225 10.22125 7.56875 C 10.04995 7.6472749 9.8319497 7.6978374 9.5937499 7.6974999 L 9.5899999 7.6974999 L 9.5862499 7.6974999 C 9.2675428 7.696825 8.9847748 7.6043998 8.8012499 7.4775 C 8.70915 7.4145375 8.6416374 7.3446749 8.6012499 7.27875 C 8.5604875 7.21245 8.5440499 7.1522874 8.5437499 7.09 L 8.5437499 7.08875 L 8.5462499 6.4825 z M 9.5749999 17.46 L 9.6249999 17.46 L 9.5999999 17.4725 L 9.5749999 17.46 z " /><path
   class="st0"
   d="m 3.8110125,2.52705 c 6.375e-4,-6.375e-4 0.00165,-6.375e-4 0.00229,-0.00131 l 0.015225,-0.010575 z"
   id="path2"
   style="stroke-width:0.0375" />
</svg>
